<svg width="30" height="30" viewBox="0 0 30 30" fill="none" xmlns="http://www.w3.org/2000/svg">
<path d="M9.375 6.5625C9.375 4.75031 10.8441 3.28125 12.6562 3.28125H14.5312H16.875C16.875 2.24578 15.6647 1.40625 13.5938 1.40625H9.84375C8.95828 1.40625 8.12484 1.82297 7.59375 2.53125C7.22859 3.01828 7.03125 3.61031 7.03125 4.21875V9.375L9.375 7.96875V6.5625Z" fill="#4D2817"/>
<path d="M6.5625 13.6828V9.375H5.625C4.58953 9.375 3.75 10.2145 3.75 11.25V13.125C3.75 14.1605 4.58953 15 5.625 15H6.89484C6.68156 14.5983 6.5625 14.1483 6.5625 13.6828Z" fill="#606060"/>
<path d="M19.2188 13.125V11.25C19.2188 10.2145 18.3792 9.375 17.3438 9.375H16.875V13.125H19.2188Z" fill="#606060"/>
<path d="M14.5312 4.6875V3.28125H12.6562C10.8441 3.28125 9.375 4.75031 9.375 6.5625V7.96875H11.25C13.0622 7.96875 14.5312 6.49969 14.5312 4.6875Z" fill="#4D2817"/>
<path d="M14.5312 4.6875C14.5312 6.49969 13.0622 7.96875 11.25 7.96875H14.0625C15.8747 7.96875 17.3438 6.49969 17.3438 4.6875V3.28125H16.875H14.5312V4.6875Z" fill="#66351E"/>
<path d="M14.0625 7.96875H16.875C17.3789 7.96875 17.8547 7.85156 18.2812 7.64859V7.64344V7.64859C19.3889 7.12172 20.1562 5.99531 20.1562 4.6875V3.28125H17.3438V4.6875C17.3438 6.49969 15.8747 7.96875 14.0625 7.96875Z" fill="#4D2817"/>
<path d="M8.90625 1.40625H7.96875C7.08328 1.40625 6.24984 1.82297 5.71875 2.53125C5.35359 3.01828 5.15625 3.61031 5.15625 4.21875V9.375H5.625H7.03125V4.21875C7.03125 3.61031 7.22859 3.01828 7.59375 2.53125C8.12484 1.82297 8.95828 1.40625 9.84375 1.40625H8.90625Z" fill="#66351E"/>
<path d="M5.15625 13.5938V11.7188C5.15625 10.8459 5.75531 10.1189 6.5625 9.90984V9.375H5.625C4.58953 9.375 3.75 10.2145 3.75 11.25V13.125C3.75 14.1605 4.58953 15 5.625 15H5.80313C5.40984 14.6564 5.15625 14.1572 5.15625 13.5938Z" fill="#878787"/>
<path d="M17.3438 9.375H16.875V10.3125C17.9105 10.3125 18.75 11.152 18.75 12.1875V13.125H19.2188V11.25C19.2188 10.2145 18.3792 9.375 17.3438 9.375Z" fill="#878787"/>
<path d="M19.2188 20.3222C20.5233 20.8505 21.5625 21.4528 21.5625 22.0312V28.5938H1.875V22.0312C1.875 20.4778 9.375 18.75 9.375 18.75H14.0625L19.2188 20.3222Z" fill="#D0382A"/>
<path d="M19.2188 21.7284L14.0625 20.1563H9.375C9.375 20.1563 2.75625 21.6816 1.95516 23.1539L1.875 22.0313C1.875 20.4778 9.375 18.75 9.375 18.75H14.0625L19.2188 20.3222C20.5233 20.8505 21.5625 21.4528 21.5625 22.0313L21.4814 23.1652C21.2236 22.673 20.3198 22.1742 19.2188 21.7284Z" fill="#B33024"/>
<path d="M8.90625 7.96875H16.875V13.6828C16.875 14.5177 16.5042 15.3089 15.863 15.8433L13.6584 17.0512C13.3083 17.2434 12.9159 17.3438 12.5166 17.3438H10.9205C10.5216 17.3438 10.1288 17.2434 9.77859 17.0512L7.57406 15.8433C6.93328 15.3089 6.5625 14.5172 6.5625 13.6828V9.84375L8.90625 7.96875Z" fill="#FCE0B9"/>
<path d="M9.77906 17.0514C10.1292 17.2436 10.5216 17.3439 10.9209 17.3439H12.517C12.9159 17.3439 13.3087 17.2436 13.6589 17.0514L14.0625 16.8301V19.6876C12.7683 20.9819 10.6692 20.9819 9.375 19.6876V16.8301L9.77906 17.0514Z" fill="#FCE0B9"/>
<path d="M9.375 16.8301L9.77906 17.0514C10.1292 17.2436 10.5216 17.3439 10.9209 17.3439H12.517C12.9159 17.3439 13.3087 17.2436 13.6589 17.0514L14.0625 16.8301V19.6876C13.9884 19.7617 13.9111 19.8301 13.8323 19.8958L9.375 17.0092V16.8301Z" fill="#F5CBA1"/>
<path d="M12.6562 11.7188C12.3975 11.7188 12.1875 11.9288 12.1875 12.1875V17.3438H12.5166C12.9155 17.3438 13.3083 17.2434 13.6584 17.0512L15.863 15.8433C16.5042 15.3089 16.875 14.5172 16.875 13.6828V11.7188H12.6562Z" fill="#F5CBA1"/>
<path d="M13.5938 13.125V17.0817V19.2188V23.4375H20.1562V15.4688C20.1562 14.9508 20.5758 14.5312 21.0938 14.5312C21.6117 14.5312 22.0312 14.9508 22.0312 15.4688V23.4375H28.5938V13.125H13.5938Z" fill="#383838"/>
<path d="M21.0938 14.5312C20.5758 14.5312 20.1562 14.9508 20.1562 15.4688V23.4375V26.7188H22.0312V23.4375V15.4688C22.0312 14.9508 21.6117 14.5312 21.0938 14.5312Z" fill="#383838"/>
<path d="M16.875 26.7188V28.5938H25.3125V26.7188H22.0312H20.1562H16.875Z" fill="#383838"/>
<path d="M11.25 7.03125H9.375V7.96875H11.25C13.0622 7.96875 14.5312 6.49969 14.5312 4.6875V3.75C14.5312 5.56219 13.0622 7.03125 11.25 7.03125Z" fill="#3D2012"/>
<path d="M14.0625 7.03125H13.5441C12.9525 7.61063 12.1434 7.96875 11.25 7.96875H14.0625C15.8747 7.96875 17.3438 6.49969 17.3438 4.6875V3.75C17.3438 5.56219 15.8747 7.03125 14.0625 7.03125Z" fill="#4D2817"/>
<path d="M18.2812 6.71109C17.8547 6.91406 17.3789 7.03125 16.875 7.03125H16.3566C15.765 7.61063 14.9559 7.96875 14.0625 7.96875H16.875C17.3789 7.96875 17.8547 7.85156 18.2812 7.64859C19.3889 7.12172 20.1562 5.99531 20.1562 4.6875V3.75C20.1562 5.05828 19.3889 6.18422 18.2812 6.71109Z" fill="#3D2012"/>
<path d="M4.6875 26.7188L9.375 25.7812H12.1875C12.9642 25.7812 13.5938 26.4108 13.5938 27.1875V28.5938H4.6875V26.7188Z" fill="#FCE0B9"/>
<path d="M19.2188 14.2791V23.4375H20.1562V15.4688C20.1562 14.9508 20.5758 14.5312 21.0938 14.5312C21.6117 14.5312 22.0312 14.9508 22.0312 15.4688V23.4375H22.9688V14.2791C22.9688 13.6416 22.1292 13.125 21.0938 13.125C20.0583 13.125 19.2188 13.6416 19.2188 14.2791Z" fill="#262626"/>
<path d="M16.875 27.6562H25.3125V28.5938H16.875V27.6562Z" fill="#262626"/>
<path d="M9.375 12.0703C8.92266 12.0703 8.55469 11.7023 8.55469 11.25C8.55469 10.7977 8.92266 10.4297 9.375 10.4297C9.82734 10.4297 10.1953 10.7977 10.1953 11.25C10.1953 11.7023 9.82734 12.0703 9.375 12.0703ZM9.375 11.1328C9.31031 11.1328 9.25781 11.1853 9.25781 11.25C9.25781 11.3789 9.49219 11.3789 9.49219 11.25C9.49219 11.1853 9.43969 11.1328 9.375 11.1328Z" fill="black"/>
<path d="M14.0625 12.0703C13.6102 12.0703 13.2422 11.7023 13.2422 11.25C13.2422 10.7977 13.6102 10.4297 14.0625 10.4297C14.5148 10.4297 14.8828 10.7977 14.8828 11.25C14.8828 11.7023 14.5148 12.0703 14.0625 12.0703ZM14.0625 11.1328C13.9978 11.1328 13.9453 11.1853 13.9453 11.25C13.9453 11.3789 14.1797 11.3789 14.1797 11.25C14.1797 11.1853 14.1272 11.1328 14.0625 11.1328Z" fill="black"/>
<path d="M28.5938 12.6562H19.6875V11.25C19.6875 10.4873 19.3158 9.81516 18.75 9.38719V7.93031C19.8689 7.28062 20.625 6.07219 20.625 4.6875V3.28125C20.625 3.0225 20.415 2.8125 20.1562 2.8125H17.2781C17.0034 1.81922 15.8353 0.9375 13.5938 0.9375H9.84375H7.96875C6.94125 0.9375 5.96016 1.42828 5.34375 2.25C4.92047 2.81391 4.6875 3.51328 4.6875 4.21875V9.10172C3.86016 9.46406 3.28125 10.2909 3.28125 11.25V13.125C3.28125 14.2566 4.08797 15.2034 5.15625 15.4214V19.455C3.18656 20.1455 1.40625 21.0422 1.40625 22.0312V28.5938C1.40625 28.8525 1.61625 29.0625 1.875 29.0625H16.875H25.3125C25.5713 29.0625 25.7812 28.8525 25.7812 28.5938V26.7188C25.7812 26.46 25.5713 26.25 25.3125 26.25H22.5V23.9062H28.5938C28.8525 23.9062 29.0625 23.6963 29.0625 23.4375V13.125C29.0625 12.8663 28.8525 12.6562 28.5938 12.6562ZM17.3438 12.6562V9.84375C18.1191 9.84375 18.75 10.4747 18.75 11.25V12.6562H17.3438ZM9.84375 17.5983C10.185 17.738 10.5511 17.8125 10.9209 17.8125H12.5166C12.72 17.8125 12.9244 17.7867 13.125 17.7422V19.8075C12.0755 20.4089 10.7569 20.2856 9.84375 19.485V17.5983ZM13.5938 12.6562C13.335 12.6562 13.125 12.8663 13.125 13.125V16.77C12.9272 16.8375 12.7209 16.875 12.5166 16.875H10.9209C10.6012 16.875 10.2844 16.7939 10.0041 16.6406L7.84125 15.4552C7.32563 15.0094 7.03125 14.3658 7.03125 13.6828V9.84375C7.11984 9.84375 7.19766 9.81281 7.26844 9.77016L7.27266 9.77719L9.50484 8.4375H16.4062V12.6562H13.5938ZM16.875 3.75V4.6875C16.875 6.23859 15.6136 7.5 14.0625 7.5H13.7222C14.5036 6.81234 15 5.80781 15 4.6875V3.75H16.875ZM14.0625 4.6875C14.0625 6.23859 12.8011 7.5 11.25 7.5H9.84375V6.5625C9.84375 5.01141 11.1052 3.75 12.6562 3.75H14.0625V4.6875ZM17.8125 8.95359C17.6611 8.92266 17.5041 8.90625 17.3438 8.90625V8.40516C17.5036 8.385 17.6597 8.35406 17.8125 8.31422V8.95359ZM19.6875 4.6875C19.6875 6.23859 18.4261 7.5 16.875 7.5H16.5347C17.3161 6.81234 17.8125 5.80781 17.8125 4.6875V3.75H19.6875V4.6875ZM7.96875 2.8125C8.40891 2.22563 9.10969 1.875 9.84375 1.875H13.5938C15.0202 1.875 15.9145 2.29828 16.2506 2.8125H12.6562C10.5886 2.8125 8.90625 4.49484 8.90625 6.5625V7.70344L7.5 8.54719V4.21875C7.5 3.71484 7.66641 3.21516 7.96875 2.8125ZM5.625 4.21875C5.625 3.71484 5.79141 3.21516 6.09375 2.8125C6.43875 2.35219 6.94406 2.03766 7.5 1.92281C7.39969 2.025 7.30547 2.13422 7.21875 2.25C6.79547 2.81391 6.5625 3.51328 6.5625 4.21875V8.90625H5.625V4.21875ZM4.21875 13.125V11.25C4.21875 10.4747 4.84969 9.84375 5.625 9.84375H6.09375V13.6828C6.09375 13.9734 6.13641 14.257 6.20953 14.5312H5.625C4.84969 14.5312 4.21875 13.9003 4.21875 13.125ZM6.09375 15.4688H6.62625C6.80344 15.7406 7.01859 15.99 7.27453 16.2033C7.2975 16.223 7.32281 16.2398 7.34953 16.2544L8.90625 17.1075V18.3783C8.12953 18.5634 7.12078 18.8241 6.09375 19.1447V15.4688ZM2.34375 22.0312C2.34375 21.675 3.48 21.0759 5.15625 20.4675V26.1469L4.59562 26.2594L4.77984 27.1786L5.15625 27.1031V28.125H2.34375V22.0312ZM13.125 28.125H6.09375V26.9156L9.42141 26.25H12.1875C12.7045 26.25 13.125 26.6705 13.125 27.1875V28.125ZM16.4062 26.7188V28.125H14.0625V27.1875C14.0625 26.1534 13.2216 25.3125 12.1875 25.3125H9.375C9.34406 25.3125 9.31359 25.3153 9.28313 25.3219L6.09375 25.9594V20.1445C6.95625 19.8628 7.91297 19.5886 8.90625 19.3444V19.6875C8.90625 19.8117 8.95547 19.9312 9.04359 20.0189C9.77625 20.7516 10.7456 21.1284 11.7216 21.128C12.1978 21.128 12.6727 21.0281 13.125 20.8463V23.4375C13.125 23.6963 13.335 23.9062 13.5938 23.9062H19.6875V26.25H16.875C16.6163 26.25 16.4062 26.46 16.4062 26.7188ZM24.8438 28.125H17.3438V27.1875H24.8438V28.125ZM20.625 26.25V15.4688C20.625 15.2105 20.8355 15 21.0938 15C21.352 15 21.5625 15.2105 21.5625 15.4688V26.25H20.625ZM28.125 22.9688H22.5V15.4688C22.5 14.6934 21.8691 14.0625 21.0938 14.0625C20.3184 14.0625 19.6875 14.6934 19.6875 15.4688V22.9688H14.0625V13.5938H28.125V22.9688Z" fill="black"/>
</svg>
